<?xml version="1.0" standalone="no"?>
<!DOCTYPE svg PUBLIC "-//W3C//DTD SVG 20010904//EN"
 "http://www.w3.org/TR/2001/REC-SVG-20010904/DTD/svg10.dtd">
<svg version="1.0" xmlns="http://www.w3.org/2000/svg"
 width="2048.000000pt" height="2048.000000pt" viewBox="0 0 2048.000000 2048.000000"
 preserveAspectRatio="xMidYMid meet">

<g transform="translate(0.000000,2048.000000) scale(0.100000,-0.100000)"
fill="#000000" stroke="none">
<path d="M5168 20460 c-355 -75 -614 -321 -720 -685 l-23 -80 -3 -2647 -2
-2648 740 0 740 0 2 2363 3 2362 4930 0 4930 0 3 -3317 2 -3318 680 0 680 0 0
3599 c0 3235 -2 3607 -16 3682 -60 320 -293 574 -621 676 l-88 28 -5575 2
c-5371 2 -5578 1 -5662 -17z"/>
<path d="M7885 17613 c-138 -19 -274 -86 -380 -185 -268 -250 -321 -618 -134
-936 43 -73 178 -207 251 -250 31 -18 89 -45 130 -60 l73 -27 2965 0 2965 0
73 27 c224 81 389 259 463 498 34 108 34 293 1 400 -43 136 -97 226 -197 325
-97 97 -190 155 -310 191 -57 18 -186 19 -2965 20 -1598 1 -2918 -1 -2935 -3z"/>
<path d="M7850 14903 c-46 -8 -125 -36 -185 -66 -158 -79 -280 -215 -352 -392
-50 -123 -54 -116 96 -164 449 -143 771 -351 1111 -719 l113 -122 2551 2 2551
3 84 29 c245 86 432 302 486 562 72 348 -129 707 -467 837 l-83 32 -2940 1
c-1617 1 -2951 -1 -2965 -3z"/>
<path d="M1840 13433 c-254 -41 -466 -143 -640 -310 -172 -164 -263 -320 -327
-562 -23 -83 -26 -118 -27 -256 0 -154 2 -173 67 -542 37 -209 67 -384 67
-387 0 -3 -43 -6 -95 -6 -298 0 -570 -145 -734 -390 -106 -158 -158 -341 -148
-520 4 -79 285 -1897 1378 -8919 107 -690 121 -753 199 -905 158 -307 430
-519 781 -607 l94 -24 7715 0 7715 0 83 23 c330 90 576 338 654 660 44 182 90
-157 -695 5122 -394 2648 -724 4845 -732 4882 -45 188 -151 357 -303 479 -83
67 -234 145 -342 175 -63 18 -204 19 -3760 24 l-3695 5 -677 795 c-372 437
-710 827 -752 865 -195 184 -420 304 -696 373 l-105 27 -2500 1 c-1375 1
-2511 0 -2525 -3z"/>
<path d="M18020 12755 c0 -8 81 -763 181 -1678 l180 -1662 430 -2890 c236
-1589 432 -2905 436 -2923 6 -24 178 1110 618 4075 578 3895 610 4115 609
4238 -1 110 -5 144 -28 220 -101 335 -389 582 -728 625 -51 6 -394 10 -890 10
-714 0 -808 -2 -808 -15z"/>
</g>
</svg>
